STARTFONT 2.1
FONT -FontForge-PIxellium-Medium-R-Normal--96-920-75-75-P-328-ISO10646-1
SIZE 92 75 75
FONTBOUNDINGBOX 30 54 0 0
COMMENT "Generated by fontforge, http://fontforge.sourceforge.net"
COMMENT "Brynda1231"
STARTPROPERTIES 36
FOUNDRY "FontForge"
FAMILY_NAME "PIxellium"
WEIGHT_NAME "Medium"
SLANT "R"
SETWIDTH_NAME "Normal"
ADD_STYLE_NAME ""
PIXEL_SIZE 96
POINT_SIZE 920
RESOLUTION_X 75
RESOLUTION_Y 75
SPACING "P"
AVERAGE_WIDTH 328
CHARSET_REGISTRY "ISO10646"
CHARSET_ENCODING "1"
FONTNAME_REGISTRY ""
CHARSET_COLLECTIONS "ISO10646-1"
FONT_NAME "PIxellium"
FACE_NAME "PIxellium"
COPYRIGHT "Brynda1231"
FONT_VERSION "001.000"
FONT_ASCENT 72
FONT_DESCENT 24
UNDERLINE_POSITION -19
UNDERLINE_THICKNESS 5
RAW_ASCENT 750
RAW_DESCENT 250
NORM_SPACE 30
RELATIVE_WEIGHT 50
RELATIVE_SETWIDTH 50
SUPERSCRIPT_X 0
SUPERSCRIPT_Y 46
SUPERSCRIPT_SIZE 67
SUBSCRIPT_X 0
SUBSCRIPT_Y 13
SUBSCRIPT_SIZE 67
AVG_UPPERCASE_WIDTH 360
ENDPROPERTIES
CHARS 15
STARTCHAR space
ENCODING 32
SWIDTH 312 0
DWIDTH 30 0
BBX 1 1 0 0
BITMAP
00
ENDCHAR
STARTCHAR percent
ENCODING 37
SWIDTH 375 0
DWIDTH 36 0
BBX 30 54 0 0
BITMAP
03F000FC
03F000FC
03F000FC
03F000FC
03F000FC
03F000FC
FC0FC0FC
FC0FC0FC
FC0FC0FC
FC0FC0FC
FC0FC0FC
FC0FC0FC
FC0FC0FC
FC0FC0FC
FC0FC0FC
FC0FC0FC
FC0FC0FC
FC0FC0FC
03F03F00
03F03F00
03F03F00
03F03F00
03F03F00
03F03F00
000FC000
000FC000
000FC000
000FC000
000FC000
000FC000
03F03F00
03F03F00
03F03F00
03F03F00
03F03F00
03F03F00
FC0FC0FC
FC0FC0FC
FC0FC0FC
FC0FC0FC
FC0FC0FC
FC0FC0FC
FC0FC0FC
FC0FC0FC
FC0FC0FC
FC0FC0FC
FC0FC0FC
FC0FC0FC
FC003F00
FC003F00
FC003F00
FC003F00
FC003F00
FC003F00
ENDCHAR
STARTCHAR period
ENCODING 46
SWIDTH 187 0
DWIDTH 18 0
BBX 12 12 0 0
BITMAP
FFF0
FFF0
FFF0
FFF0
FFF0
FFF0
FFF0
FFF0
FFF0
FFF0
FFF0
FFF0
ENDCHAR
STARTCHAR zero
ENCODING 48
SWIDTH 375 0
DWIDTH 36 0
BBX 30 54 0 0
BITMAP
03FFFF00
03FFFF00
03FFFF00
03FFFF00
03FFFF00
03FFFF00
FC0000FC
FC0000FC
FC0000FC
FC0000FC
FC0000FC
FC0000FC
FC0000FC
FC0000FC
FC0000FC
FC0000FC
FC0000FC
FC0000FC
FC0000FC
FC0000FC
FC0000FC
FC0000FC
FC0000FC
FC0000FC
FC0000FC
FC0000FC
FC0000FC
FC0000FC
FC0000FC
FC0000FC
FC0000FC
FC0000FC
FC0000FC
FC0000FC
FC0000FC
FC0000FC
FC0000FC
FC0000FC
FC0000FC
FC0000FC
FC0000FC
FC0000FC
FC0000FC
FC0000FC
FC0000FC
FC0000FC
FC0000FC
FC0000FC
03FFFF00
03FFFF00
03FFFF00
03FFFF00
03FFFF00
03FFFF00
ENDCHAR
STARTCHAR one
ENCODING 49
SWIDTH 250 0
DWIDTH 24 0
BBX 18 54 0 0
BITMAP
000FC0
000FC0
000FC0
000FC0
000FC0
000FC0
FFFFC0
FFFFC0
FFFFC0
FFFFC0
FFFFC0
FFFFC0
000FC0
000FC0
000FC0
000FC0
000FC0
000FC0
000FC0
000FC0
000FC0
000FC0
000FC0
000FC0
000FC0
000FC0
000FC0
000FC0
000FC0
000FC0
000FC0
000FC0
000FC0
000FC0
000FC0
000FC0
000FC0
000FC0
000FC0
000FC0
000FC0
000FC0
000FC0
000FC0
000FC0
000FC0
000FC0
000FC0
000FC0
000FC0
000FC0
000FC0
000FC0
000FC0
ENDCHAR
STARTCHAR two
ENCODING 50
SWIDTH 375 0
DWIDTH 36 0
BBX 30 54 0 0
BITMAP
03FFFF00
03FFFF00
03FFFF00
03FFFF00
03FFFF00
03FFFF00
FC0000FC
FC0000FC
FC0000FC
FC0000FC
FC0000FC
FC0000FC
000000FC
000000FC
000000FC
000000FC
000000FC
000000FC
000000FC
000000FC
000000FC
000000FC
000000FC
000000FC
000FFF00
000FFF00
000FFF00
000FFF00
000FFF00
000FFF00
03F00000
03F00000
03F00000
03F00000
03F00000
03F00000
FC000000
FC000000
FC000000
FC000000
FC000000
FC000000
FC000000
FC000000
FC000000
FC000000
FC000000
FC000000
FFFFFFFC
FFFFFFFC
FFFFFFFC
FFFFFFFC
FFFFFFFC
FFFFFFFC
ENDCHAR
STARTCHAR three
ENCODING 51
SWIDTH 375 0
DWIDTH 36 0
BBX 30 54 0 0
BITMAP
03FFFF00
03FFFF00
03FFFF00
03FFFF00
03FFFF00
03FFFF00
FC0000FC
FC0000FC
FC0000FC
FC0000FC
FC0000FC
FC0000FC
000000FC
000000FC
000000FC
000000FC
000000FC
000000FC
000000FC
000000FC
000000FC
000000FC
000000FC
000000FC
000FFF00
000FFF00
000FFF00
000FFF00
000FFF00
000FFF00
000000FC
000000FC
000000FC
000000FC
000000FC
000000FC
000000FC
000000FC
000000FC
000000FC
000000FC
000000FC
FC0000FC
FC0000FC
FC0000FC
FC0000FC
FC0000FC
FC0000FC
03FFFF00
03FFFF00
03FFFF00
03FFFF00
03FFFF00
03FFFF00
ENDCHAR
STARTCHAR four
ENCODING 52
SWIDTH 375 0
DWIDTH 36 0
BBX 30 54 0 0
BITMAP
FC0000FC
FC0000FC
FC0000FC
FC0000FC
FC0000FC
FC0000FC
FC0000FC
FC0000FC
FC0000FC
FC0000FC
FC0000FC
FC0000FC
FC0000FC
FC0000FC
FC0000FC
FC0000FC
FC0000FC
FC0000FC
FC0000FC
FC0000FC
FC0000FC
FC0000FC
FC0000FC
FC0000FC
FFFFFFFC
FFFFFFFC
FFFFFFFC
FFFFFFFC
FFFFFFFC
FFFFFFFC
000000FC
000000FC
000000FC
000000FC
000000FC
000000FC
000000FC
000000FC
000000FC
000000FC
000000FC
000000FC
000000FC
000000FC
000000FC
000000FC
000000FC
000000FC
000000FC
000000FC
000000FC
000000FC
000000FC
000000FC
ENDCHAR
STARTCHAR five
ENCODING 53
SWIDTH 375 0
DWIDTH 36 0
BBX 30 54 0 0
BITMAP
FFFFFFFC
FFFFFFFC
FFFFFFFC
FFFFFFFC
FFFFFFFC
FFFFFFFC
FC000000
FC000000
FC000000
FC000000
FC000000
FC000000
FC000000
FC000000
FC000000
FC000000
FC000000
FC000000
FFFFFF00
FFFFFF00
FFFFFF00
FFFFFF00
FFFFFF00
FFFFFF00
000000FC
000000FC
000000FC
000000FC
000000FC
000000FC
000000FC
000000FC
000000FC
000000FC
000000FC
000000FC
000000FC
000000FC
000000FC
000000FC
000000FC
000000FC
FC0000FC
FC0000FC
FC0000FC
FC0000FC
FC0000FC
FC0000FC
03FFFF00
03FFFF00
03FFFF00
03FFFF00
03FFFF00
03FFFF00
ENDCHAR
STARTCHAR six
ENCODING 54
SWIDTH 375 0
DWIDTH 36 0
BBX 30 54 0 0
BITMAP
03FFFF00
03FFFF00
03FFFF00
03FFFF00
03FFFF00
03FFFF00
FC0000FC
FC0000FC
FC0000FC
FC0000FC
FC0000FC
FC0000FC
FC000000
FC000000
FC000000
FC000000
FC000000
FC000000
FC000000
FC000000
FC000000
FC000000
FC000000
FC000000
FFFFFF00
FFFFFF00
FFFFFF00
FFFFFF00
FFFFFF00
FFFFFF00
FC0000FC
FC0000FC
FC0000FC
FC0000FC
FC0000FC
FC0000FC
FC0000FC
FC0000FC
FC0000FC
FC0000FC
FC0000FC
FC0000FC
FC0000FC
FC0000FC
FC0000FC
FC0000FC
FC0000FC
FC0000FC
03FFFF00
03FFFF00
03FFFF00
03FFFF00
03FFFF00
03FFFF00
ENDCHAR
STARTCHAR seven
ENCODING 55
SWIDTH 375 0
DWIDTH 36 0
BBX 30 54 0 0
BITMAP
FFFFFFFC
FFFFFFFC
FFFFFFFC
FFFFFFFC
FFFFFFFC
FFFFFFFC
FC0000FC
FC0000FC
FC0000FC
FC0000FC
FC0000FC
FC0000FC
000000FC
000000FC
000000FC
000000FC
000000FC
000000FC
00003F00
00003F00
00003F00
00003F00
00003F00
00003F00
00003F00
00003F00
00003F00
00003F00
00003F00
00003F00
000FC000
000FC000
000FC000
000FC000
000FC000
000FC000
000FC000
000FC000
000FC000
000FC000
000FC000
000FC000
000FC000
000FC000
000FC000
000FC000
000FC000
000FC000
000FC000
000FC000
000FC000
000FC000
000FC000
000FC000
ENDCHAR
STARTCHAR eight
ENCODING 56
SWIDTH 375 0
DWIDTH 36 0
BBX 30 54 0 0
BITMAP
03FFFF00
03FFFF00
03FFFF00
03FFFF00
03FFFF00
03FFFF00
FC0000FC
FC0000FC
FC0000FC
FC0000FC
FC0000FC
FC0000FC
FC0000FC
FC0000FC
FC0000FC
FC0000FC
FC0000FC
FC0000FC
FC0000FC
FC0000FC
FC0000FC
FC0000FC
FC0000FC
FC0000FC
03FFFF00
03FFFF00
03FFFF00
03FFFF00
03FFFF00
03FFFF00
FC0000FC
FC0000FC
FC0000FC
FC0000FC
FC0000FC
FC0000FC
FC0000FC
FC0000FC
FC0000FC
FC0000FC
FC0000FC
FC0000FC
FC0000FC
FC0000FC
FC0000FC
FC0000FC
FC0000FC
FC0000FC
03FFFF00
03FFFF00
03FFFF00
03FFFF00
03FFFF00
03FFFF00
ENDCHAR
STARTCHAR nine
ENCODING 57
SWIDTH 375 0
DWIDTH 36 0
BBX 30 54 0 0
BITMAP
03FFFF00
03FFFF00
03FFFF00
03FFFF00
03FFFF00
03FFFF00
FC0000FC
FC0000FC
FC0000FC
FC0000FC
FC0000FC
FC0000FC
FC0000FC
FC0000FC
FC0000FC
FC0000FC
FC0000FC
FC0000FC
FC0000FC
FC0000FC
FC0000FC
FC0000FC
FC0000FC
FC0000FC
03FFFFFC
03FFFFFC
03FFFFFC
03FFFFFC
03FFFFFC
03FFFFFC
000000FC
000000FC
000000FC
000000FC
000000FC
000000FC
000000FC
000000FC
000000FC
000000FC
000000FC
000000FC
FC0000FC
FC0000FC
FC0000FC
FC0000FC
FC0000FC
FC0000FC
03FFFF00
03FFFF00
03FFFF00
03FFFF00
03FFFF00
03FFFF00
ENDCHAR
STARTCHAR M
ENCODING 77
SWIDTH 375 0
DWIDTH 36 0
BBX 30 54 0 0
BITMAP
FC0000FC
FC0000FC
FC0000FC
FC0000FC
FC0000FC
FC0000FC
FFF03FFC
FFF03FFC
FFF03FFC
FFF03FFC
FFF03FFC
FFF03FFC
FFF03FFC
FFF03FFC
FFF03FFC
FFF03FFC
FFF03FFC
FFF03FFC
FC0FC0FC
FC0FC0FC
FC0FC0FC
FC0FC0FC
FC0FC0FC
FC0FC0FC
FC0FC0FC
FC0FC0FC
FC0FC0FC
FC0FC0FC
FC0FC0FC
FC0FC0FC
FC0FC0FC
FC0FC0FC
FC0FC0FC
FC0FC0FC
FC0FC0FC
FC0FC0FC
FC0000FC
FC0000FC
FC0000FC
FC0000FC
FC0000FC
FC0000FC
FC0000FC
FC0000FC
FC0000FC
FC0000FC
FC0000FC
FC0000FC
FC0000FC
FC0000FC
FC0000FC
FC0000FC
FC0000FC
FC0000FC
ENDCHAR
STARTCHAR degree
ENCODING 176
SWIDTH 250 0
DWIDTH 24 0
BBX 18 18 0 36
BITMAP
03F000
03F000
03F000
03F000
03F000
03F000
FC0FC0
FC0FC0
FC0FC0
FC0FC0
FC0FC0
FC0FC0
03F000
03F000
03F000
03F000
03F000
03F000
ENDCHAR
ENDFONT
