STARTFONT 2.1
FONT -FontForge-PIxellium-Medium-R-Normal--80-770-75-75-P-273-ISO10646-1
SIZE 77 75 75
FONTBOUNDINGBOX 25 45 0 0
COMMENT "Generated by fontforge, http://fontforge.sourceforge.net"
COMMENT "Brynda1231"
STARTPROPERTIES 36
FOUNDRY "FontForge"
FAMILY_NAME "PIxellium"
WEIGHT_NAME "Medium"
SLANT "R"
SETWIDTH_NAME "Normal"
ADD_STYLE_NAME ""
PIXEL_SIZE 80
POINT_SIZE 770
RESOLUTION_X 75
RESOLUTION_Y 75
SPACING "P"
AVERAGE_WIDTH 273
CHARSET_REGISTRY "ISO10646"
CHARSET_ENCODING "1"
FONTNAME_REGISTRY ""
CHARSET_COLLECTIONS "ISO10646-1"
FONT_NAME "PIxellium"
FACE_NAME "PIxellium"
COPYRIGHT "Brynda1231"
FONT_VERSION "001.000"
FONT_ASCENT 60
FONT_DESCENT 20
UNDERLINE_POSITION -16
UNDERLINE_THICKNESS 4
RAW_ASCENT 750
RAW_DESCENT 250
NORM_SPACE 25
RELATIVE_WEIGHT 50
RELATIVE_SETWIDTH 50
SUPERSCRIPT_X 0
SUPERSCRIPT_Y 38
SUPERSCRIPT_SIZE 55
SUBSCRIPT_X 0
SUBSCRIPT_Y 11
SUBSCRIPT_SIZE 55
AVG_UPPERCASE_WIDTH 300
ENDPROPERTIES
CHARS 15
STARTCHAR space
ENCODING 32
SWIDTH 312 0
DWIDTH 25 0
BBX 1 1 0 0
BITMAP
00
ENDCHAR
STARTCHAR percent
ENCODING 37
SWIDTH 375 0
DWIDTH 30 0
BBX 25 45 0 0
BITMAP
07C00F80
07C00F80
07C00F80
07C00F80
07C00F80
F83E0F80
F83E0F80
F83E0F80
F83E0F80
F83E0F80
F83E0F80
F83E0F80
F83E0F80
F83E0F80
F83E0F80
07C1F000
07C1F000
07C1F000
07C1F000
07C1F000
003E0000
003E0000
003E0000
003E0000
003E0000
07C1F000
07C1F000
07C1F000
07C1F000
07C1F000
F83E0F80
F83E0F80
F83E0F80
F83E0F80
F83E0F80
F83E0F80
F83E0F80
F83E0F80
F83E0F80
F83E0F80
F801F000
F801F000
F801F000
F801F000
F801F000
ENDCHAR
STARTCHAR period
ENCODING 46
SWIDTH 187 0
DWIDTH 15 0
BBX 10 10 0 0
BITMAP
FFC0
FFC0
FFC0
FFC0
FFC0
FFC0
FFC0
FFC0
FFC0
FFC0
ENDCHAR
STARTCHAR zero
ENCODING 48
SWIDTH 375 0
DWIDTH 30 0
BBX 25 45 0 0
BITMAP
07FFF000
07FFF000
07FFF000
07FFF000
07FFF000
F8000F80
F8000F80
F8000F80
F8000F80
F8000F80
F8000F80
F8000F80
F8000F80
F8000F80
F8000F80
F8000F80
F8000F80
F8000F80
F8000F80
F8000F80
F8000F80
F8000F80
F8000F80
F8000F80
F8000F80
F8000F80
F8000F80
F8000F80
F8000F80
F8000F80
F8000F80
F8000F80
F8000F80
F8000F80
F8000F80
F8000F80
F8000F80
F8000F80
F8000F80
F8000F80
07FFF000
07FFF000
07FFF000
07FFF000
07FFF000
ENDCHAR
STARTCHAR one
ENCODING 49
SWIDTH 250 0
DWIDTH 20 0
BBX 15 45 0 0
BITMAP
003E
003E
003E
003E
003E
FFFE
FFFE
FFFE
FFFE
FFFE
003E
003E
003E
003E
003E
003E
003E
003E
003E
003E
003E
003E
003E
003E
003E
003E
003E
003E
003E
003E
003E
003E
003E
003E
003E
003E
003E
003E
003E
003E
003E
003E
003E
003E
003E
ENDCHAR
STARTCHAR two
ENCODING 50
SWIDTH 375 0
DWIDTH 30 0
BBX 25 45 0 0
BITMAP
07FFF000
07FFF000
07FFF000
07FFF000
07FFF000
F8000F80
F8000F80
F8000F80
F8000F80
F8000F80
00000F80
00000F80
00000F80
00000F80
00000F80
00000F80
00000F80
00000F80
00000F80
00000F80
003FF000
003FF000
003FF000
003FF000
003FF000
07C00000
07C00000
07C00000
07C00000
07C00000
F8000000
F8000000
F8000000
F8000000
F8000000
F8000000
F8000000
F8000000
F8000000
F8000000
FFFFFF80
FFFFFF80
FFFFFF80
FFFFFF80
FFFFFF80
ENDCHAR
STARTCHAR three
ENCODING 51
SWIDTH 375 0
DWIDTH 30 0
BBX 25 45 0 0
BITMAP
07FFF000
07FFF000
07FFF000
07FFF000
07FFF000
F8000F80
F8000F80
F8000F80
F8000F80
F8000F80
00000F80
00000F80
00000F80
00000F80
00000F80
00000F80
00000F80
00000F80
00000F80
00000F80
003FF000
003FF000
003FF000
003FF000
003FF000
00000F80
00000F80
00000F80
00000F80
00000F80
00000F80
00000F80
00000F80
00000F80
00000F80
F8000F80
F8000F80
F8000F80
F8000F80
F8000F80
07FFF000
07FFF000
07FFF000
07FFF000
07FFF000
ENDCHAR
STARTCHAR four
ENCODING 52
SWIDTH 375 0
DWIDTH 30 0
BBX 25 45 0 0
BITMAP
F8000F80
F8000F80
F8000F80
F8000F80
F8000F80
F8000F80
F8000F80
F8000F80
F8000F80
F8000F80
F8000F80
F8000F80
F8000F80
F8000F80
F8000F80
F8000F80
F8000F80
F8000F80
F8000F80
F8000F80
FFFFFF80
FFFFFF80
FFFFFF80
FFFFFF80
FFFFFF80
00000F80
00000F80
00000F80
00000F80
00000F80
00000F80
00000F80
00000F80
00000F80
00000F80
00000F80
00000F80
00000F80
00000F80
00000F80
00000F80
00000F80
00000F80
00000F80
00000F80
ENDCHAR
STARTCHAR five
ENCODING 53
SWIDTH 375 0
DWIDTH 30 0
BBX 25 45 0 0
BITMAP
FFFFFF80
FFFFFF80
FFFFFF80
FFFFFF80
FFFFFF80
F8000000
F8000000
F8000000
F8000000
F8000000
F8000000
F8000000
F8000000
F8000000
F8000000
FFFFF000
FFFFF000
FFFFF000
FFFFF000
FFFFF000
00000F80
00000F80
00000F80
00000F80
00000F80
00000F80
00000F80
00000F80
00000F80
00000F80
00000F80
00000F80
00000F80
00000F80
00000F80
F8000F80
F8000F80
F8000F80
F8000F80
F8000F80
07FFF000
07FFF000
07FFF000
07FFF000
07FFF000
ENDCHAR
STARTCHAR six
ENCODING 54
SWIDTH 375 0
DWIDTH 30 0
BBX 25 45 0 0
BITMAP
07FFF000
07FFF000
07FFF000
07FFF000
07FFF000
F8000F80
F8000F80
F8000F80
F8000F80
F8000F80
F8000000
F8000000
F8000000
F8000000
F8000000
F8000000
F8000000
F8000000
F8000000
F8000000
FFFFF000
FFFFF000
FFFFF000
FFFFF000
FFFFF000
F8000F80
F8000F80
F8000F80
F8000F80
F8000F80
F8000F80
F8000F80
F8000F80
F8000F80
F8000F80
F8000F80
F8000F80
F8000F80
F8000F80
F8000F80
07FFF000
07FFF000
07FFF000
07FFF000
07FFF000
ENDCHAR
STARTCHAR seven
ENCODING 55
SWIDTH 375 0
DWIDTH 30 0
BBX 25 45 0 0
BITMAP
FFFFFF80
FFFFFF80
FFFFFF80
FFFFFF80
FFFFFF80
F8000F80
F8000F80
F8000F80
F8000F80
F8000F80
00000F80
00000F80
00000F80
00000F80
00000F80
0001F000
0001F000
0001F000
0001F000
0001F000
0001F000
0001F000
0001F000
0001F000
0001F000
003E0000
003E0000
003E0000
003E0000
003E0000
003E0000
003E0000
003E0000
003E0000
003E0000
003E0000
003E0000
003E0000
003E0000
003E0000
003E0000
003E0000
003E0000
003E0000
003E0000
ENDCHAR
STARTCHAR eight
ENCODING 56
SWIDTH 375 0
DWIDTH 30 0
BBX 25 45 0 0
BITMAP
07FFF000
07FFF000
07FFF000
07FFF000
07FFF000
F8000F80
F8000F80
F8000F80
F8000F80
F8000F80
F8000F80
F8000F80
F8000F80
F8000F80
F8000F80
F8000F80
F8000F80
F8000F80
F8000F80
F8000F80
07FFF000
07FFF000
07FFF000
07FFF000
07FFF000
F8000F80
F8000F80
F8000F80
F8000F80
F8000F80
F8000F80
F8000F80
F8000F80
F8000F80
F8000F80
F8000F80
F8000F80
F8000F80
F8000F80
F8000F80
07FFF000
07FFF000
07FFF000
07FFF000
07FFF000
ENDCHAR
STARTCHAR nine
ENCODING 57
SWIDTH 375 0
DWIDTH 30 0
BBX 25 45 0 0
BITMAP
07FFF000
07FFF000
07FFF000
07FFF000
07FFF000
F8000F80
F8000F80
F8000F80
F8000F80
F8000F80
F8000F80
F8000F80
F8000F80
F8000F80
F8000F80
F8000F80
F8000F80
F8000F80
F8000F80
F8000F80
07FFFF80
07FFFF80
07FFFF80
07FFFF80
07FFFF80
00000F80
00000F80
00000F80
00000F80
00000F80
00000F80
00000F80
00000F80
00000F80
00000F80
F8000F80
F8000F80
F8000F80
F8000F80
F8000F80
07FFF000
07FFF000
07FFF000
07FFF000
07FFF000
ENDCHAR
STARTCHAR M
ENCODING 77
SWIDTH 375 0
DWIDTH 30 0
BBX 25 45 0 0
BITMAP
F8000F80
F8000F80
F8000F80
F8000F80
F8000F80
FFC1FF80
FFC1FF80
FFC1FF80
FFC1FF80
FFC1FF80
FFC1FF80
FFC1FF80
FFC1FF80
FFC1FF80
FFC1FF80
F83E0F80
F83E0F80
F83E0F80
F83E0F80
F83E0F80
F83E0F80
F83E0F80
F83E0F80
F83E0F80
F83E0F80
F83E0F80
F83E0F80
F83E0F80
F83E0F80
F83E0F80
F8000F80
F8000F80
F8000F80
F8000F80
F8000F80
F8000F80
F8000F80
F8000F80
F8000F80
F8000F80
F8000F80
F8000F80
F8000F80
F8000F80
F8000F80
ENDCHAR
STARTCHAR degree
ENCODING 176
SWIDTH 250 0
DWIDTH 20 0
BBX 15 15 0 30
BITMAP
07C0
07C0
07C0
07C0
07C0
F83E
F83E
F83E
F83E
F83E
07C0
07C0
07C0
07C0
07C0
ENDCHAR
ENDFONT
